<svg version="1.1" id="Layer_1" xmlns="http://www.w3.org/2000/svg" xmlns:xlink="http://www.w3.org/1999/xlink" x="0px" y="0px"
	 width="100%" viewBox="0 0 560 568" enable-background="new 0 0 560 568" xml:space="preserve">
<path fill="#FFFFFF" opacity="1.000000" stroke="none" 
	d="
M371.000000,569.000000 
	C247.333328,569.000000 124.166664,569.000000 1.000000,569.000000 
	C1.000000,379.666656 1.000000,190.333328 1.000000,1.000000 
	C187.666672,1.000000 374.333344,1.000000 561.000000,1.000000 
	C561.000000,190.333328 561.000000,379.666656 561.000000,569.000000 
	C497.833344,569.000000 434.666656,569.000000 371.000000,569.000000 
M276.719025,514.783081 
	C287.112366,522.539246 297.505707,530.295410 308.251221,538.314392 
	C354.978424,475.847961 401.496277,413.661438 448.523254,350.794312 
	C445.623230,350.444855 443.672424,350.230042 441.727386,349.971985 
	C431.843536,348.660645 422.662964,345.425262 414.376312,339.826721 
	C410.104950,336.940918 408.863373,332.769318 410.149933,327.991211 
	C411.413849,323.297272 414.952240,320.485931 419.626648,320.529327 
	C422.766205,320.558502 425.954041,322.170593 429.005615,323.366974 
	C434.094421,325.362091 438.912537,328.513763 444.163910,329.531891 
	C455.368988,331.704285 464.142242,332.784149 470.366547,321.698486 
	C472.866669,317.245605 472.604584,313.176117 467.989197,310.860809 
	C464.948517,309.335480 461.404755,308.649139 458.005341,308.035248 
	C449.671875,306.530334 441.104156,305.973755 432.976929,303.762878 
	C422.577820,300.933990 415.637451,293.881378 414.001892,282.837097 
	C412.181213,270.542389 414.798187,259.713470 425.469208,251.879654 
	C440.394470,240.922745 470.354187,242.956421 486.214539,253.825912 
	C490.981018,257.092529 491.979553,262.229126 489.336731,267.017853 
	C486.936493,271.366943 481.967316,273.050049 476.793427,271.163879 
	C472.111420,269.457062 467.595123,266.964844 462.772858,266.060089 
	C457.153503,265.005798 451.258362,264.850372 445.525299,265.141205 
	C440.280975,265.407227 436.660858,269.321594 436.261749,274.055145 
	C435.830078,279.174835 438.595367,282.355133 443.299255,283.521332 
	C447.956879,284.676025 452.739105,285.451904 457.512115,285.992645 
	C468.666077,287.256134 479.819550,288.359283 488.603241,297.183990 
	C497.841644,284.845123 506.910706,272.732422 516.280212,260.218445 
	C453.125397,212.976486 390.125183,165.850204 327.049957,118.667809 
	C301.535400,146.902740 276.502411,174.604797 250.719360,203.136871 
	C255.560074,202.860184 259.045013,202.642166 262.532043,202.465271 
	C272.180969,201.975800 281.826538,201.347855 291.481873,201.086823 
	C296.682709,200.946213 300.305908,204.302002 300.845337,208.968857 
	C301.350616,213.339951 298.126190,217.368317 293.080475,218.366714 
	C290.975586,218.783203 288.785095,218.806442 286.628876,218.918106 
	C268.828552,219.839874 251.023224,220.671051 233.227859,221.679138 
	C225.334335,222.126297 221.434219,218.778824 221.024338,210.778427 
	C220.436264,199.299423 219.789612,187.823395 219.212631,176.343842 
	C218.794479,168.024948 218.259216,159.705124 218.139755,151.380508 
	C218.064575,146.140305 221.455093,142.575073 226.130005,142.092026 
	C230.545242,141.635818 234.427277,144.842346 235.492920,149.924957 
	C235.763931,151.217590 235.831726,152.562393 235.893311,153.887833 
	C236.357239,163.873383 236.771927,173.861313 237.263672,183.845444 
	C237.362061,185.843201 237.724503,187.827957 238.087967,190.834259 
	C263.454956,162.772949 287.984955,135.637512 312.896210,108.080322 
	C287.835632,89.335907 263.218109,70.922859 238.159393,52.179821 
	C190.262192,116.212234 142.590729,179.942871 94.334068,244.455826 
	C97.928513,244.670090 100.358765,244.379669 102.512474,245.019745 
	C111.206848,247.603668 120.069931,249.883118 128.367538,253.446655 
	C133.930023,255.835541 135.040649,261.576447 132.564178,266.638458 
	C130.249207,271.370331 124.862450,273.158356 119.263794,270.977539 
	C117.095200,270.132812 115.020744,269.046448 112.852234,268.201447 
	C104.988312,265.137268 96.956085,263.368286 88.452782,264.997589 
	C83.281723,265.988434 79.614258,269.383423 79.242386,274.107880 
	C78.838638,279.237305 81.702370,282.161621 86.326019,283.597382 
	C88.224159,284.186768 90.175529,284.685883 92.139763,284.966919 
	C99.550140,286.027252 107.060654,286.566528 114.377159,288.065094 
	C127.725449,290.799011 136.092331,298.870392 137.687988,310.889343 
	C139.428070,323.995911 135.961899,335.379669 124.371681,343.142670 
	C107.274933,354.593842 72.652168,352.612671 56.731022,339.335571 
	C52.709686,335.982056 51.530514,330.827240 53.751656,326.311279 
	C56.032661,321.673584 61.136879,319.286591 66.331192,320.950958 
	C69.460564,321.953735 72.382973,323.658112 75.318962,325.198639 
	C85.616150,330.601624 96.357658,332.538086 107.602333,328.896393 
	C113.100441,327.115784 115.488297,323.163269 115.149750,317.917999 
	C114.827888,312.931244 112.167786,310.096619 106.117119,308.956573 
	C101.383476,308.064667 96.575508,307.546051 91.788002,306.965179 
	C79.359703,305.457184 67.218018,303.378021 59.387306,291.203094 
	C49.561153,304.330170 40.017574,317.079773 30.126221,330.293976 
	C87.362175,373.107727 144.225555,415.642761 201.203842,458.263794 
	C222.125107,435.092163 242.649933,412.359589 264.117279,388.583130 
	C249.745468,389.237122 237.107620,389.901520 224.462097,390.349487 
	C218.276489,390.568573 214.253296,387.103088 214.139175,381.948486 
	C214.030060,377.020447 217.790848,373.297760 223.576126,372.984314 
	C243.038208,371.929688 262.502106,370.893677 281.973175,370.026672 
	C290.634247,369.640991 293.623993,372.747467 294.021912,381.421906 
	C294.510468,392.071350 295.184235,402.712219 295.720520,413.359680 
	C296.173004,422.344238 296.722168,431.329803 296.880432,440.321014 
	C296.969696,445.389435 293.721039,448.779419 289.218781,449.245453 
	C284.443268,449.739807 280.874939,447.276978 279.825409,442.332520 
	C279.243683,439.592041 279.181732,436.728027 279.029510,433.911926 
	C278.446960,423.133270 277.922791,412.351440 277.312469,400.300354 
	C256.186554,423.668823 235.927521,446.078339 215.352341,468.837585 
	C235.934494,484.238831 256.046234,499.288055 276.719025,514.783081 
z"/>
<path fill="#E15256" opacity="1.000000" stroke="none" 
	d="
M276.438477,514.560181 
	C256.046234,499.288055 235.934494,484.238831 215.352341,468.837585 
	C235.927521,446.078339 256.186554,423.668823 277.312469,400.300354 
	C277.922791,412.351440 278.446960,423.133270 279.029510,433.911926 
	C279.181732,436.728027 279.243683,439.592041 279.825409,442.332520 
	C280.874939,447.276978 284.443268,449.739807 289.218781,449.245453 
	C293.721039,448.779419 296.969696,445.389435 296.880432,440.321014 
	C296.722168,431.329803 296.173004,422.344238 295.720520,413.359680 
	C295.184235,402.712219 294.510468,392.071350 294.021912,381.421906 
	C293.623993,372.747467 290.634247,369.640991 281.973175,370.026672 
	C262.502106,370.893677 243.038208,371.929688 223.576126,372.984314 
	C217.790848,373.297760 214.030060,377.020447 214.139175,381.948486 
	C214.253296,387.103088 218.276489,390.568573 224.462097,390.349487 
	C237.107620,389.901520 249.745468,389.237122 264.117279,388.583130 
	C242.649933,412.359589 222.125107,435.092163 201.203842,458.263794 
	C144.225555,415.642761 87.362175,373.107727 30.126221,330.293976 
	C40.017574,317.079773 49.561153,304.330170 59.387306,291.203094 
	C67.218018,303.378021 79.359703,305.457184 91.788002,306.965179 
	C96.575508,307.546051 101.383476,308.064667 106.117119,308.956573 
	C112.167786,310.096619 114.827888,312.931244 115.149750,317.917999 
	C115.488297,323.163269 113.100441,327.115784 107.602333,328.896393 
	C96.357658,332.538086 85.616150,330.601624 75.318962,325.198639 
	C72.382973,323.658112 69.460564,321.953735 66.331192,320.950958 
	C61.136879,319.286591 56.032661,321.673584 53.751656,326.311279 
	C51.530514,330.827240 52.709686,335.982056 56.731022,339.335571 
	C72.652168,352.612671 107.274933,354.593842 124.371681,343.142670 
	C135.961899,335.379669 139.428070,323.995911 137.687988,310.889343 
	C136.092331,298.870392 127.725449,290.799011 114.377159,288.065094 
	C107.060654,286.566528 99.550140,286.027252 92.139763,284.966919 
	C90.175529,284.685883 88.224159,284.186768 86.326019,283.597382 
	C81.702370,282.161621 78.838638,279.237305 79.242386,274.107880 
	C79.614258,269.383423 83.281723,265.988434 88.452782,264.997589 
	C96.956085,263.368286 104.988312,265.137268 112.852234,268.201447 
	C115.020744,269.046448 117.095200,270.132812 119.263794,270.977539 
	C124.862450,273.158356 130.249207,271.370331 132.564178,266.638458 
	C135.040649,261.576447 133.930023,255.835541 128.367538,253.446655 
	C120.069931,249.883118 111.206848,247.603668 102.512474,245.019745 
	C100.358765,244.379669 97.928513,244.670090 94.334068,244.455826 
	C142.590729,179.942871 190.262192,116.212234 238.159393,52.179821 
	C263.218109,70.922859 287.835632,89.335907 312.896210,108.080322 
	C287.984955,135.637512 263.454956,162.772949 238.087967,190.834259 
	C237.724503,187.827957 237.362061,185.843201 237.263672,183.845444 
	C236.771927,173.861313 236.357239,163.873383 235.893311,153.887833 
	C235.831726,152.562393 235.763931,151.217590 235.492920,149.924957 
	C234.427277,144.842346 230.545242,141.635818 226.130005,142.092026 
	C221.455093,142.575073 218.064575,146.140305 218.139755,151.380508 
	C218.259216,159.705124 218.794479,168.024948 219.212631,176.343842 
	C219.789612,187.823395 220.436264,199.299423 221.024338,210.778427 
	C221.434219,218.778824 225.334335,222.126297 233.227859,221.679138 
	C251.023224,220.671051 268.828552,219.839874 286.628876,218.918106 
	C288.785095,218.806442 290.975586,218.783203 293.080475,218.366714 
	C298.126190,217.368317 301.350616,213.339951 300.845337,208.968857 
	C300.305908,204.302002 296.682709,200.946213 291.481873,201.086823 
	C281.826538,201.347855 272.180969,201.975800 262.532043,202.465271 
	C259.045013,202.642166 255.560074,202.860184 250.719360,203.136871 
	C276.502411,174.604797 301.535400,146.902740 327.049957,118.667809 
	C390.125183,165.850204 453.125397,212.976486 516.280212,260.218445 
	C506.910706,272.732422 497.841644,284.845123 488.603241,297.183990 
	C479.819550,288.359283 468.666077,287.256134 457.512115,285.992645 
	C452.739105,285.451904 447.956879,284.676025 443.299255,283.521332 
	C438.595367,282.355133 435.830078,279.174835 436.261749,274.055145 
	C436.660858,269.321594 440.280975,265.407227 445.525299,265.141205 
	C451.258362,264.850372 457.153503,265.005798 462.772858,266.060089 
	C467.595123,266.964844 472.111420,269.457062 476.793427,271.163879 
	C481.967316,273.050049 486.936493,271.366943 489.336731,267.017853 
	C491.979553,262.229126 490.981018,257.092529 486.214539,253.825912 
	C470.354187,242.956421 440.394470,240.922745 425.469208,251.879654 
	C414.798187,259.713470 412.181213,270.542389 414.001892,282.837097 
	C415.637451,293.881378 422.577820,300.933990 432.976929,303.762878 
	C441.104156,305.973755 449.671875,306.530334 458.005341,308.035248 
	C461.404755,308.649139 464.948517,309.335480 467.989197,310.860809 
	C472.604584,313.176117 472.866669,317.245605 470.366547,321.698486 
	C464.142242,332.784149 455.368988,331.704285 444.163910,329.531891 
	C438.912537,328.513763 434.094421,325.362091 429.005615,323.366974 
	C425.954041,322.170593 422.766205,320.558502 419.626648,320.529327 
	C414.952240,320.485931 411.413849,323.297272 410.149933,327.991211 
	C408.863373,332.769318 410.104950,336.940918 414.376312,339.826721 
	C422.662964,345.425262 431.843536,348.660645 441.727386,349.971985 
	C443.672424,350.230042 445.623230,350.444855 448.523254,350.794312 
	C401.496277,413.661438 354.978424,475.847961 308.251221,538.314392 
	C297.505707,530.295410 287.112366,522.539246 276.438477,514.560181 
M310.378784,345.499939 
	C310.575195,356.312408 310.477356,367.141479 311.086212,377.930664 
	C311.414154,383.741913 316.130737,387.324677 321.983917,387.482758 
	C327.644348,387.635620 332.121918,384.477661 333.405975,379.038727 
	C333.971405,376.643555 334.032074,374.092499 334.047363,371.610504 
	C334.112549,361.032532 334.075073,350.453888 334.075073,339.429352 
	C335.025238,339.989746 335.483215,340.151306 335.796143,340.459930 
	C354.420532,358.828125 385.835205,352.780731 395.096405,328.305847 
	C402.758148,308.057709 402.543304,287.068756 395.026733,266.732635 
	C390.131012,253.487335 379.865997,245.990417 365.514740,244.819122 
	C353.548218,243.842453 342.613525,245.996216 334.501221,256.205780 
	C333.993622,255.201538 333.653992,254.632950 333.407684,254.026459 
	C330.791107,247.584839 326.806702,245.153687 320.278870,246.036133 
	C314.787628,246.778442 311.712524,250.152130 310.856323,256.583221 
	C310.550140,258.883179 310.400940,261.221008 310.398315,263.541809 
	C310.367767,290.527832 310.378998,317.513885 310.378784,345.499939 
M207.956543,274.568817 
	C205.054382,285.657959 205.020981,296.874695 205.769104,308.254211 
	C207.373993,332.665161 221.386490,347.887146 245.392593,350.599640 
	C269.350616,353.306671 289.166046,339.857697 293.820526,317.235107 
	C296.457123,304.420319 296.749207,291.311371 293.732269,278.589264 
	C292.165253,271.981293 289.141571,265.274017 285.181244,259.756165 
	C269.094116,237.342331 218.652054,237.420395 207.956543,274.568817 
M201.916138,256.381805 
	C200.871292,249.405960 198.376724,247.098251 191.492844,246.886826 
	C188.495865,246.794769 185.458954,247.120193 182.511765,246.723801 
	C181.334381,246.565430 179.585648,245.104462 179.395157,244.010422 
	C177.284393,231.887558 180.508804,227.535202 192.422424,225.948486 
	C192.917648,225.882538 193.418381,225.836639 193.904663,225.728134 
	C199.013443,224.588150 202.026428,220.986618 202.157486,215.879715 
	C202.293579,210.576981 199.764175,206.806198 194.485123,205.742767 
	C190.952530,205.031158 187.192642,204.987518 183.575195,205.236511 
	C167.195984,206.363846 158.963760,213.748611 156.372604,229.776978 
	C155.713394,233.854721 155.773636,238.091614 155.910706,242.241928 
	C156.023880,245.668655 154.908203,246.885071 151.372833,246.968491 
	C144.790421,247.123810 141.106262,250.719131 141.193192,256.150879 
	C141.277863,261.440308 144.855865,264.903656 151.207672,264.944397 
	C155.074814,264.969208 155.930649,266.418488 155.907913,269.979034 
	C155.773712,290.975769 155.837067,311.973785 155.850601,332.971375 
	C155.851898,334.968964 155.843781,336.979736 156.054245,338.961639 
	C156.755310,345.562988 161.213074,349.459564 167.794785,349.344025 
	C175.058731,349.216492 179.160034,344.640289 179.215302,335.942963 
	C179.339203,316.445953 179.258392,296.947693 179.259964,277.449921 
	C179.260941,265.444763 179.260147,265.444794 191.406662,265.059021 
	C197.781204,264.856567 199.950592,263.215820 201.916138,256.381805 
z"/>
<path fill="#FFFCFC" opacity="1.000000" stroke="none" 
	d="
M310.378967,344.999939 
	C310.378998,317.513885 310.367767,290.527832 310.398315,263.541809 
	C310.400940,261.221008 310.550140,258.883179 310.856323,256.583221 
	C311.712524,250.152130 314.787628,246.778442 320.278870,246.036133 
	C326.806702,245.153687 330.791107,247.584839 333.407684,254.026459 
	C333.653992,254.632950 333.993622,255.201538 334.501221,256.205780 
	C342.613525,245.996216 353.548218,243.842453 365.514740,244.819122 
	C379.865997,245.990417 390.131012,253.487335 395.026733,266.732635 
	C402.543304,287.068756 402.758148,308.057709 395.096405,328.305847 
	C385.835205,352.780731 354.420532,358.828125 335.796143,340.459930 
	C335.483215,340.151306 335.025238,339.989746 334.075073,339.429352 
	C334.075073,350.453888 334.112549,361.032532 334.047363,371.610504 
	C334.032074,374.092499 333.971405,376.643555 333.405975,379.038727 
	C332.121918,384.477661 327.644348,387.635620 321.983917,387.482758 
	C316.130737,387.324677 311.414154,383.741913 311.086212,377.930664 
	C310.477356,367.141479 310.575195,356.312408 310.378967,344.999939 
M374.438690,281.294281 
	C371.810394,270.486816 365.819183,265.679688 355.066589,265.750671 
	C344.301727,265.821747 338.171051,270.816315 335.842010,281.468872 
	C333.464142,292.344666 333.555267,303.223907 335.882446,314.098602 
	C338.078003,324.358215 344.784180,329.761810 355.327454,329.752838 
	C365.279846,329.744354 371.832489,324.627319 374.253418,314.713379 
	C376.896362,303.890076 376.618073,292.991333 374.438690,281.294281 
z"/>
<path fill="#FFFDFD" opacity="1.000000" stroke="none" 
	d="
M208.031281,274.174011 
	C218.652054,237.420395 269.094116,237.342331 285.181244,259.756165 
	C289.141571,265.274017 292.165253,271.981293 293.732269,278.589264 
	C296.749207,291.311371 296.457123,304.420319 293.820526,317.235107 
	C289.166046,339.857697 269.350616,353.306671 245.392593,350.599640 
	C221.386490,347.887146 207.373993,332.665161 205.769104,308.254211 
	C205.020981,296.874695 205.054382,285.657959 208.031281,274.174011 
M262.913147,269.458008 
	C249.428879,260.755524 233.945831,266.953583 230.635818,282.585754 
	C228.441971,292.946625 228.554855,303.388855 230.835419,313.772217 
	C232.979721,323.535156 240.298691,329.544861 250.318466,329.742950 
	C260.342987,329.941162 268.550262,323.859192 269.888245,313.547028 
	C271.095428,304.242950 271.044525,294.708252 270.744934,285.300842 
	C270.558655,279.450836 268.231598,273.963013 262.913147,269.458008 
z"/>
<path fill="#FFFEFE" opacity="1.000000" stroke="none" 
	d="
M201.877533,256.775360 
	C199.950592,263.215820 197.781204,264.856567 191.406662,265.059021 
	C179.260147,265.444794 179.260941,265.444763 179.259964,277.449921 
	C179.258392,296.947693 179.339203,316.445953 179.215302,335.942963 
	C179.160034,344.640289 175.058731,349.216492 167.794785,349.344025 
	C161.213074,349.459564 156.755310,345.562988 156.054245,338.961639 
	C155.843781,336.979736 155.851898,334.968964 155.850601,332.971375 
	C155.837067,311.973785 155.773712,290.975769 155.907913,269.979034 
	C155.930649,266.418488 155.074814,264.969208 151.207672,264.944397 
	C144.855865,264.903656 141.277863,261.440308 141.193192,256.150879 
	C141.106262,250.719131 144.790421,247.123810 151.372833,246.968491 
	C154.908203,246.885071 156.023880,245.668655 155.910706,242.241928 
	C155.773636,238.091614 155.713394,233.854721 156.372604,229.776978 
	C158.963760,213.748611 167.195984,206.363846 183.575195,205.236511 
	C187.192642,204.987518 190.952530,205.031158 194.485123,205.742767 
	C199.764175,206.806198 202.293579,210.576981 202.157486,215.879715 
	C202.026428,220.986618 199.013443,224.588150 193.904663,225.728134 
	C193.418381,225.836639 192.917648,225.882538 192.422424,225.948486 
	C180.508804,227.535202 177.284393,231.887558 179.395157,244.010422 
	C179.585648,245.104462 181.334381,246.565430 182.511765,246.723801 
	C185.458954,247.120193 188.495865,246.794769 191.492844,246.886826 
	C198.376724,247.098251 200.871292,249.405960 201.877533,256.775360 
z"/>
<path fill="#E15357" opacity="1.000000" stroke="none" 
	d="
M374.562622,281.691406 
	C376.618073,292.991333 376.896362,303.890076 374.253418,314.713379 
	C371.832489,324.627319 365.279846,329.744354 355.327454,329.752838 
	C344.784180,329.761810 338.078003,324.358215 335.882446,314.098602 
	C333.555267,303.223907 333.464142,292.344666 335.842010,281.468872 
	C338.171051,270.816315 344.301727,265.821747 355.066589,265.750671 
	C365.819183,265.679688 371.810394,270.486816 374.562622,281.691406 
z"/>
<path fill="#E15357" opacity="1.000000" stroke="none" 
	d="
M263.175323,269.720337 
	C268.231598,273.963013 270.558655,279.450836 270.744934,285.300842 
	C271.044525,294.708252 271.095428,304.242950 269.888245,313.547028 
	C268.550262,323.859192 260.342987,329.941162 250.318466,329.742950 
	C240.298691,329.544861 232.979721,323.535156 230.835419,313.772217 
	C228.554855,303.388855 228.441971,292.946625 230.635818,282.585754 
	C233.945831,266.953583 249.428879,260.755524 263.175323,269.720337 
z"/>
</svg>